<svg height="502.624pt" viewBox="0 0 502.624 502.624" width="502.624pt" xmlns="http://www.w3.org/2000/svg"><path d="m464.511719 502.625h-193.886719l-56-74.671875v-85.328125c0-35.296875 28.703125-64 64-64v-64c0-26.464844 21.535156-48 48-48s48 21.535156 48 48v68.910156l128 48v94.863282zm0 0" fill="#ecce93"/><path d="m310.625 390.625v-221.058594c-18.578125 6.625-32 24.226563-32 45.058594v208c17.679688 0 32-14.320312 32-32zm0 0" fill="#e5bd76"/><g fill="#40a2e7"><path d="m134.625 61.246094v57.378906h32v-57.378906l20.6875 20.691406 22.625-22.625-59.3125-59.3125-59.3125 59.3125 22.625 22.625zm0 0"/><path d="m166.625 240v-57.375h-32v57.375l-20.6875-20.6875-22.625 22.625 59.3125 59.308594 59.3125-59.308594-22.625-22.625zm0 0"/><path d="m118.625 166.625v-32h-57.378906l20.691406-20.6875-22.625-22.625-59.3125 59.3125 59.3125 59.3125 22.625-22.625-20.691406-20.6875zm0 0"/><path d="m241.9375 91.3125-22.625 22.625 20.6875 20.6875h-57.375v32h57.375l-20.6875 20.6875 22.625 22.625 59.308594-59.3125zm0 0"/></g><path d="m342.625 358.625h32v32h-32zm0 0" fill="#fff"/><path d="m406.625 358.625h32v32h-32zm0 0" fill="#fff"/></svg>