<svg height="440pt" viewBox="-12 0 440 440" width="440pt" xmlns="http://www.w3.org/2000/svg"><path d="m16 40h384c8.835938 0 16 7.164062 16 16v368c0 8.835938-7.164062 16-16 16h-384c-8.835938 0-16-7.164062-16-16v-368c0-8.835938 7.164062-16 16-16zm0 0" fill="#cbcbcb"/><path d="m48 112h320v272h-320zm0 0" fill="#ebebeb"/><path d="m16 40h384c8.835938 0 16 7.164062 16 16v64h-416v-64c0-8.835938 7.164062-16 16-16zm0 0" fill="#dc4d41"/><path d="m208 168 24.71875 50.089844 55.28125 8.03125-40 38.992187 9.441406 55.054688-49.441406-25.992188-49.441406 25.992188 9.441406-55.054688-40-38.992187 55.28125-8.03125zm0 0" fill="#fbb540"/><g fill="#d9d9d9"><path d="m72 256h16v16h-16zm0 0"/><path d="m104 256h16v16h-16zm0 0"/><path d="m72 336h16v16h-16zm0 0"/><path d="m104 336h16v16h-16zm0 0"/><path d="m136 336h16v16h-16zm0 0"/><path d="m168 336h16v16h-16zm0 0"/><path d="m200 336h16v16h-16zm0 0"/><path d="m232 336h16v16h-16zm0 0"/><path d="m72 160h16v16h-16zm0 0"/><path d="m104 160h16v16h-16zm0 0"/><path d="m136 160h16v16h-16zm0 0"/><path d="m168 160h16v16h-16zm0 0"/><path d="m296 160h16v16h-16zm0 0"/><path d="m328 160h16v16h-16zm0 0"/><path d="m232 160h16v16h-16zm0 0"/><path d="m264 160h16v16h-16zm0 0"/><path d="m296 256h16v16h-16zm0 0"/><path d="m328 256h16v16h-16zm0 0"/><path d="m296 336h16v16h-16zm0 0"/><path d="m264 336h16v16h-16zm0 0"/><path d="m328 336h16v16h-16zm0 0"/></g><path d="m80 0c8.835938 0 16 7.164062 16 16v40c0 8.835938-7.164062 16-16 16s-16-7.164062-16-16v-40c0-8.835938 7.164062-16 16-16zm0 0" fill="#fbb540"/><path d="m336 0c8.835938 0 16 7.164062 16 16v40c0 8.835938-7.164062 16-16 16s-16-7.164062-16-16v-40c0-8.835938 7.164062-16 16-16zm0 0" fill="#fbb540"/></svg>