<svg height="477pt" viewBox="0 -30 477.76 477" width="477pt" xmlns="http://www.w3.org/2000/svg"><path d="m359.199219 326.878906-63.859375.472656-25.351563.1875-1.339843.011719c-5.550782.023438-10.078126-4.441406-10.136719-9.992187l-6.25-46.648438c-.082031-10.390625 7.089843-19.851562 17.476562-19.949218l-.039062.078124 120.742187-.890624 41.730469-.308594 27.566406-.199219v.007813c10.402344-.078126 17.953125 9.203124 18.023438 19.601562l-5.820313 46.730469c.019532 5.554687-4.445312 10.085937-10 10.140625l-1.082031.007812-25.347656.191406zm87.722656-28.890625c5.761719-.039062 10.398437-4.746093 10.359375-10.507812-.042969-5.761719-4.75-10.402344-10.511719-10.359375-5.761719.039062-10.402343 4.746094-10.359375 10.507812.042969 5.761719 4.746094 10.402344 10.511719 10.359375zm-163.402344 1.203125c5.761719-.046875 10.394531-4.75 10.351563-10.511718-.046875-5.757813-4.75-10.394532-10.511719-10.347657-5.757813.042969-10.394531 4.746094-10.347656 10.507813.039062 5.761718 4.746093 10.398437 10.507812 10.351562zm0 0" fill="#f8ec7d"/><path d="m461 344.46875c.019531 2.78125-2.21875 5.050781-5 5.070312l-15.28125.109376c-2.777344.023437-5.046875-2.210938-5.070312-4.988282l-.128907-17.519531-.007812-.820313 25.347656-.191406.011719.820313zm0 0" fill="#e2d574"/><path d="m269.738281 250.960938 20.191407-36.390626c5.199218-10.921874 13.539062-20.160156 24.839843-20.242187l44.601563-.328125 55.609375-.410156c11.289062-.078125 18.667969 9.039062 24.847656 19.929687l19.941406 36.121094h-.03125l-27.566406.199219-.011719-.679688c-.003906-7.488281-4.019531-14.398437-10.523437-18.109375-6.503907-3.714843-14.496094-3.65625-20.945313.148438-6.449218 3.804687-10.363281 10.773437-10.261718 18.261719l.011718.6875-120.742187.890624zm0 0" fill="#e2d574"/><path d="m457.28125 287.480469c.039062 5.761719-4.597656 10.46875-10.359375 10.507812-5.765625.042969-10.46875-4.59375-10.511719-10.359375-.042968-5.761718 4.597656-10.46875 10.359375-10.507812 5.761719-.039063 10.46875 4.597656 10.511719 10.359375zm0 0" fill="#e2d574"/><path d="m434.449219 37.921875v79.589844h-75.078125v-79.589844c0-19.902344 15.53125-36.347656 35.398437-37.480469.710938-.042968 1.421875-.0625 2.140625-.0625 20.730469.011719 37.53125 16.8125 37.539063 37.542969zm0 0" fill="#bcf1f7"/><path d="m432.160156 249.160156.011719.679688-41.730469.308594-.011718-.6875c-.101563-7.488282 3.8125-14.457032 10.261718-18.261719 6.449219-3.804688 14.441406-3.863281 20.945313-.148438 6.503906 3.710938 10.519531 10.621094 10.523437 18.109375zm0 0" fill="#f8ec7d"/><path d="m394.769531.378906v.0625c-19.867187 1.132813-35.398437 17.578125-35.398437 37.480469v156.078125l-44.601563.328125c-11.300781.082031-19.640625 9.320313-24.839843 20.242187l-20.191407 36.390626c-10.386719.097656-17.558593 9.558593-17.476562 19.949218l6.25 46.648438c.058593 5.550781 4.585937 10.015625 10.136719 9.992187l1.339843-.011719.011719.820313.128906 17.519531c.023438 2.78125 2.292969 5.015625 5.070313 4.992188l15.28125-.109375c2.78125-.023438 5.019531-2.292969 5-5.070313l-.128907-17.519531-.011718-.820313 63.859375-.472656v33.222656c-2.347657 31.808594-28.339844 56.878907-60.058594 56.878907h-.039063c-1.242187 0-2.472656-.039063-3.691406-.121094-31.539062-1.9375-56.539062-28.71875-56.539062-61.449219v-39.871094h-178.449219l2.226563-272.6875c.242187-23.523437 19.378906-42.464843 42.902343-42.472656zm0 0" fill="#6fe3ff"/><path d="m295.480469 345.691406c.019531 2.777344-2.21875 5.046875-5 5.070313l-15.28125.109375c-2.777344.023437-5.046875-2.210938-5.070313-4.992188l-.128906-17.519531-.011719-.820313 25.351563-.1875.011718.820313zm0 0" fill="#e2d574"/><path d="m295.410156 416.859375-.011718.121094h-235.167969c-33.261719 0-60.230469-27.570313-60.230469-61.570313v-39.871094h238.871094v39.871094c0 32.730469 25 59.511719 56.539062 61.449219zm0 0" fill="#bcf1f7"/><path d="m293.878906 288.679688c.046875 5.765624-4.585937 10.476562-10.351562 10.519531-5.765625.046875-10.472656-4.59375-10.515625-10.355469-.042969-5.765625 4.59375-10.472656 10.359375-10.515625 5.761718-.042969 10.46875 4.589844 10.507812 10.351563zm0 0" fill="#e2d574"/><path d="m157.25 106.691406h-50.140625c-3.3125 0-6-2.6875-6-6 0-3.316406 2.6875-6 6-6h50.140625c3.3125 0 6 2.683594 6 6 0 3.3125-2.6875 6-6 6zm0 0" fill="#2561a1"/><path d="m306.570312 177.328125h-74.640624c-3.3125 0-6-2.683594-6-6 0-3.3125 2.6875-6 6-6h74.640624c3.3125 0 6 2.6875 6 6 0 3.316406-2.6875 6-6 6zm0 0" fill="#2561a1"/><path d="m206.550781 177.328125h-23.371093c-3.3125 0-6-2.683594-6-6 0-3.3125 2.6875-6 6-6h23.371093c3.3125 0 6 2.6875 6 6 0 3.316406-2.6875 6-6 6zm0 0" fill="#2561a1"/><path d="m157.390625 177.328125h-50.28125c-3.3125 0-6-2.683594-6-6 0-3.3125 2.6875-6 6-6h50.28125c3.3125 0 6 2.6875 6 6 0 3.316406-2.6875 6-6 6zm0 0" fill="#2561a1"/><path d="m212.371094 247.980469h-105.261719c-3.3125 0-6-2.6875-6-6s2.6875-6 6-6h105.261719c3.3125 0 6 2.6875 6 6s-2.6875 6-6 6zm0 0" fill="#2561a1"/><path d="m306.570312 106.691406h-14.398437c-3.316406 0-6-2.6875-6-6 0-3.316406 2.683594-6 6-6h14.398437c3.3125 0 6 2.683594 6 6 0 3.3125-2.6875 6-6 6zm0 0" fill="#2561a1"/><path d="m266.878906 106.691406h-84.6875c-3.316406 0-6-2.6875-6-6 0-3.316406 2.683594-6 6-6h84.6875c3.316406 0 6 2.683594 6 6 0 3.3125-2.683594 6-6 6zm0 0" fill="#2561a1"/><g fill="#cc7350"><path d="m283.414062 305.191406c-9.054687-.019531-16.390624-7.359375-16.398437-16.414062-.011719-9.058594 7.308594-16.414063 16.363281-16.453125 9.054688-.039063 16.433594 7.257812 16.5 16.3125.070313 9.078125-7.238281 16.492187-16.316406 16.554687zm.050782-20.863281h-.042969c-2.449219.019531-4.425781 2.019531-4.410156 4.472656.019531 2.449219 2.023437 4.414063 4.472656 4.394531 2.449219-.019531 4.417969-2.023437 4.394531-4.472656-.015625-2.429687-1.988281-4.390625-4.414062-4.394531zm0 0"/><path d="m446.847656 303.988281c-9.078125.035157-16.464844-7.296875-16.496094-16.375-.03125-9.074219 7.300782-16.460937 16.375-16.492187h.117188c9.019531.015625 16.347656 7.285156 16.4375 16.308594v.007812c.058594 9.074219-7.242188 16.484375-16.320312 16.550781zm0-20.867187h-.03125c-2.449218.007812-4.429687 2.003906-4.417968 4.453125.007812 2.449219 2.003906 4.425781 4.453124 4.414062h.027344c2.449219-.019531 4.417969-2.015625 4.402344-4.464843-.027344-2.433594-2.003906-4.394532-4.4375-4.402344zm0 0"/><path d="m338.488281 295.109375c-3.296875 0-5.976562-2.660156-6-5.957031l-.070312-9.617188c-.023438-3.316406 2.644531-6.019531 5.957031-6.046875h.046875c3.292969 0 5.972656 2.660157 6 5.957031l.066406 9.621094c.027344 3.3125-2.640625 6.019532-5.953125 6.042969zm0 0"/><path d="m320.679688 295.238281c-3.296876 0-5.976563-2.65625-6-5.953125l-.070313-9.621094c-.023437-3.3125 2.644531-6.019531 5.957031-6.042968h.042969c3.296875 0 5.976563 2.660156 6 5.953125l.070313 9.621093c.027343 3.3125-2.640626 6.019532-5.953126 6.042969zm0 0"/><path d="m409.71875 294.578125c-3.296875.003906-5.976562-2.65625-6-5.953125l-.070312-9.609375c-.023438-3.316406 2.644531-6.019531 5.957031-6.046875 3.3125-.023438 6.019531 2.644531 6.042969 5.957031l.070312 9.609375c.023438 3.316406-2.640625 6.019532-5.957031 6.042969zm0 0"/><path d="m356.300781 294.980469c-3.296875 0-5.976562-2.660157-6-5.957031l-.070312-9.621094c-.027344-3.3125 2.640625-6.019532 5.957031-6.042969h.042969c3.296875 0 5.976562 2.660156 6 5.957031l.070312 9.621094c.023438 3.3125-2.644531 6.019531-5.957031 6.042969zm0 0"/><path d="m374.109375 294.851562c-3.296875 0-5.976563-2.660156-6-5.957031l-.070313-9.621093c-.023437-3.3125 2.640626-6.019532 5.957032-6.042969h.042968c3.296876 0 5.976563 2.660156 6 5.957031l.070313 9.617188c.023437 3.316406-2.640625 6.019531-5.957031 6.046874zm0 0"/><path d="m391.917969 294.710938c-3.292969 0-5.972657-2.65625-6-5.949219l-.078125-9.613281c-.027344-3.3125 2.636718-6.019532 5.949218-6.046876h.050782c3.292968 0 5.972656 2.652344 6 5.949219l.082031 9.609375c.027344 3.3125-2.636719 6.023438-5.953125 6.050782zm0 0"/></g></svg>